 <svg  version="1.0" xmlns="http://www.w3.org/2000/svg"  width="900.000000pt" height="921.000000pt" viewBox="0 0 900.000000 921.000000"  preserveAspectRatio="xMidYMid meet">  <g transform="translate(0.000000,921.000000) scale(0.100000,-0.100000)" fill="#000000" stroke="none"> <path d="M5486 9091 c-3 -5 4 -21 16 -36 20 -26 20 -29 5 -40 -24 -18 -22 -28 23 -94 22 -32 40 -63 40 -69 0 -5 9 -12 20 -15 24 -6 27 -35 5 -44 -10 -3 -24 5 -38 21 -13 14 -28 26 -33 26 -6 0 -23 10 -38 21 -46 37 -43 21 19 -85 l28 -48 -24 7 c-13 4 -37 14 -52 22 -30 15 -47 10 -47 -13 0 -26 -43 -14 -99 28 -31 23 -62 48 -69 55 -7 7 -20 13 -27 13 -20 0 -133 77 -148 100 -8 13 -23 20 -44 20 -39 0 -46 -10 -33 -45 14 -36 4 -68 -19 -60 -11 3 -25 -3 -36 -15 -10 -11 -23 -20 -30 -20 -14 0 -49 47 -59 78 -6 18 -15 22 -50 22 -23 0 -57 -8 -76 -18 -87 -44 -282 -183 -354 -251 -155 -147 -168 -166 -186 -260 -5 -28 -19 -74 -31 -102 -20 -45 -21 -62 -16 -168 4 -99 9 -125 30 -167 30 -58 78 -107 98 -99 8 3 34 43 57 90 24 46 47 87 52 90 6 3 10 14 10 24 0 11 22 42 49 71 l50 53 52 -7 c35 -5 57 -14 67 -27 16 -24 105 -26 157 -5 19 8 35 13 35 10 0 -6 48 24 83 53 18 14 42 23 65 23 20 0 46 7 56 15 11 8 28 15 38 15 10 0 49 14 86 31 59 27 77 31 152 30 47 0 119 -7 160 -16 41 -9 116 -21 165 -27 50 -6 92 -13 95 -15 3 -3 -6 -13 -20 -23 l-24 -18 32 -38 c18 -22 37 -44 42 -50 5 -7 15 -15 22 -18 10 -4 8 -9 -6 -18 -10 -7 -30 -22 -44 -33 l-24 -21 41 -29 42 -28 -25 -24 c-15 -13 -26 -30 -26 -37 0 -28 123 -130 218 -181 48 -26 61 -39 90 -94 30 -56 35 -76 42 -175 5 -61 12 -121 16 -133 5 -19 2 -23 -17 -24 -59 -3 -122 5 -284 36 -38 8 -92 16 -120 20 -87 11 -95 15 -95 44 0 41 -43 124 -81 154 -19 15 -70 54 -114 87 -75 55 -87 60 -182 79 -55 12 -139 21 -185 21 -79 0 -90 -3 -163 -40 -44 -22 -86 -38 -94 -35 -24 9 -58 -22 -65 -58 -9 -47 -44 -68 -122 -75 l-62 -5 -7 34 c-10 48 -51 117 -98 166 -29 30 -53 45 -89 53 -44 11 -51 10 -64 -6 -35 -44 -61 -91 -66 -117 -6 -30 7 -46 25 -28 26 26 81 4 167 -68 62 -52 71 -62 64 -73 -11 -17 -44 -7 -90 27 -27 20 -76 49 -110 66 -51 25 -66 28 -88 19 -35 -13 -99 -13 -112 0 -26 26 -347 40 -376 18 -43 -36 -48 -57 -48 -208 0 -206 24 -272 120 -324 82 -44 167 -66 288 -72 130 -7 110 -18 228 126 86 106 93 113 126 134 41 27 62 9 82 -71 41 -159 91 -285 127 -327 31 -34 39 -39 52 -28 12 10 27 8 82 -13 78 -29 113 -31 130 -9 10 15 18 13 81 -16 109 -50 231 -44 320 16 114 77 254 116 549 150 77 9 161 23 186 31 46 16 47 16 80 -10 19 -14 45 -27 58 -29 17 -2 28 -14 40 -48 18 -48 46 -64 58 -33 10 29 69 98 115 134 41 33 42 33 137 31 53 -1 110 2 127 7 49 14 140 -11 179 -49 17 -17 49 -64 71 -105 21 -41 43 -74 48 -72 5 2 17 18 27 37 10 19 40 76 67 125 27 50 55 106 61 126 14 42 64 97 98 105 13 4 37 4 53 0 26 -5 31 -2 36 21 4 14 2 40 -5 58 -15 41 -14 66 3 90 7 11 16 40 20 65 6 45 2 58 -38 114 -15 21 -16 29 -6 41 11 13 16 13 48 -1 30 -12 38 -12 49 -1 11 11 11 19 -3 46 -16 33 -16 34 7 52 31 23 19 33 -49 39 l-57 5 45 26 c25 14 61 32 80 39 66 25 74 54 36 135 -21 44 -31 53 -64 63 -22 7 -55 9 -73 6 -34 -6 -34 -6 -11 10 24 18 28 42 12 66 -9 13 -13 11 -29 -10 -18 -23 -25 -24 -98 -21 -84 3 -108 12 -74 31 l22 11 -26 30 c-43 52 -26 121 17 72 9 -10 19 -28 22 -39 8 -28 55 -47 90 -38 26 6 27 8 20 53 -4 25 -12 49 -18 53 -15 10 -48 10 -65 -1 -9 -6 -22 -6 -34 1 -16 8 -18 17 -14 50 5 37 4 39 -18 34 -20 -5 -23 -1 -29 37 -3 23 -14 57 -23 74 -14 27 -15 35 -5 45 11 11 16 9 27 -7 40 -56 55 -59 55 -10 0 37 -24 85 -43 85 -5 0 -15 -8 -22 -17 -8 -10 -27 -17 -46 -18 -30 0 -34 -4 -37 -27 -4 -36 -38 -37 -92 -3 -35 22 -40 23 -40 8 1 -19 36 -45 113 -82 28 -13 52 -33 57 -46 5 -13 18 -26 29 -30 16 -5 21 -15 21 -40 0 -58 -43 -58 -54 0 -4 22 -14 36 -27 40 -27 9 -36 -2 -21 -25 27 -44 2 -92 -37 -70 -18 9 -21 8 -21 -8 0 -11 5 -33 11 -50 8 -25 6 -47 -10 -109 -22 -87 -20 -84 -143 -151 -86 -46 -116 -48 -181 -15 -25 13 -34 12 -75 -1 -52 -18 -98 -21 -107 -6 -3 5 9 13 27 18 25 6 33 14 32 30 0 16 5 22 22 22 33 0 54 10 54 26 0 19 -50 18 -77 -1 -32 -22 -226 -17 -231 5 -2 10 18 25 57 44 74 35 108 68 88 85 -26 21 -130 51 -179 51 -35 0 -53 5 -69 21 -12 12 -17 25 -12 29 10 10 180 -5 196 -18 19 -15 67 -24 67 -12 0 5 -11 12 -25 16 -14 3 -25 9 -25 13 0 10 47 31 69 31 10 0 24 7 31 15 10 13 10 19 -4 33 -9 10 -16 28 -16 39 0 40 -25 48 -146 46 -89 -1 -114 2 -114 13 0 14 37 23 119 27 61 2 77 19 34 36 -24 9 -19 10 29 5 61 -6 118 14 118 41 0 8 21 24 48 36 26 12 50 23 54 25 4 3 10 -1 13 -7 4 -6 -2 -13 -15 -16 -13 -4 -19 -11 -16 -20 3 -8 6 -17 6 -19 0 -2 24 -4 53 -4 30 0 62 -6 72 -14 19 -14 19 -15 2 -34 -14 -15 -16 -25 -8 -46 14 -34 26 -33 41 4 20 49 36 56 53 23 19 -35 62 -76 76 -72 6 2 -4 26 -20 53 -25 40 -30 56 -25 86 7 48 -7 60 -71 63 -35 1 -48 6 -48 17 0 10 14 17 44 21 26 3 49 13 57 24 21 28 1 42 -33 25 -31 -15 -132 -32 -178 -29 -110 6 -169 3 -172 -8 -3 -8 11 -13 42 -15 53 -4 61 -22 11 -26 -20 -2 -40 3 -49 12 -9 9 -28 16 -43 16 -19 0 -38 12 -63 39 -20 21 -58 51 -86 65 -27 15 -66 43 -86 62 -36 35 -37 36 -62 19 -28 -18 -45 -16 -114 16 -24 10 -50 19 -58 19 -8 0 -15 6 -15 14 0 7 -9 20 -19 27 -30 22 -36 55 -11 62 31 8 24 35 -19 78 -34 34 -44 39 -85 39 -26 0 -63 7 -83 15 -41 17 -50 18 -57 6z m159 -192 c11 -17 32 -37 48 -45 15 -8 27 -18 27 -22 0 -18 70 -45 105 -39 29 5 35 3 35 -12 0 -10 19 -31 43 -47 23 -16 59 -43 79 -61 20 -17 53 -35 72 -39 38 -7 46 -18 20 -28 -23 -9 -72 -7 -78 3 -3 4 -22 11 -42 14 -20 3 -52 19 -72 34 -39 30 -48 35 -114 72 -24 13 -62 36 -86 52 -24 16 -46 29 -50 29 -10 0 -42 101 -36 112 10 16 29 7 49 -23z m435 -348 c0 -5 14 -11 30 -14 27 -6 43 -27 20 -27 -11 0 -90 40 -90 46 0 2 9 4 20 4 11 0 20 -4 20 -9z m110 -200 c0 -11 -39 -25 -47 -18 -3 3 -2 10 2 16 8 13 45 15 45 2z m897 -336 c-2 -5 -18 -11 -35 -13 -36 -4 -45 20 -15 36 19 11 55 -6 50 -23z m-1093 9 c26 -10 18 -24 -13 -24 -30 0 -46 12 -34 24 8 8 27 8 47 0z m798 -122 c-7 -9 -15 -24 -19 -32 -14 -32 -63 -54 -63 -29 0 20 74 96 85 87 6 -5 5 -15 -3 -26z m-1646 -327 c9 -8 28 -15 43 -15 16 0 34 -6 40 -14 7 -8 27 -17 45 -20 18 -4 41 -15 51 -26 10 -11 32 -24 49 -30 159 -49 190 -76 75 -65 -83 8 -124 25 -132 54 -3 13 -19 24 -47 31 -24 6 -50 15 -59 20 -17 8 -107 28 -183 39 -72 11 -74 23 -8 34 59 10 112 6 126 -8z m-335 -91 c10 -13 10 -17 -2 -25 -26 -16 -69 -6 -69 16 0 26 51 33 71 9z m-1075 -81 c1 -59 7 -101 18 -126 20 -47 11 -70 -15 -36 -15 20 -19 43 -19 130 0 87 4 119 15 119 0 0 1 -39 1 -87z m1202 -435 c-3 -7 -15 -13 -28 -13 -13 0 -25 6 -27 13 -3 8 6 12 27 12 21 0 30 -4 28 -12z"/> <path d="M5420 9041 c0 -10 36 -21 44 -14 3 3 3 10 0 14 -7 12 -44 12 -44 0z"/> <path d="M5207 8938 c12 -6 27 -25 34 -42 16 -41 14 -39 38 -26 12 6 21 19 21 28 0 21 -58 52 -93 51 l-22 0 22 -11z"/> <path d="M6280 8828 c0 -2 14 -14 30 -27 26 -19 38 -21 78 -15 l46 7 -49 14 c-64 18 -105 26 -105 21z"/> <path d="M6640 8749 c0 -25 33 -22 38 4 2 12 -3 17 -17 17 -15 0 -21 -6 -21 -21z"/> <path d="M6755 8655 c12 -81 25 -94 58 -57 26 28 22 79 -5 87 -66 19 -61 21 -53 -30z"/> <path d="M6400 8462 c0 -5 9 -17 19 -26 11 -10 22 -28 25 -42 6 -21 9 -22 25 -12 11 7 25 23 31 36 10 24 10 24 -23 18 -29 -5 -35 -3 -40 14 -5 19 -37 29 -37 12z"/> <path d="M6570 8328 c0 -34 7 -52 29 -78 44 -53 47 -30 7 51 l-36 72 0 -45z"/> <path d="M6445 8305 c-6 -48 -12 -60 -42 -82 -38 -29 -31 -43 23 -43 39 0 44 11 44 100 0 85 -16 100 -25 25z"/> <path d="M7262 8263 c18 -17 31 -24 37 -18 15 15 0 31 -34 39 l-30 7 27 -28z"/> <path d="M6572 8150 c3 -16 41 -27 100 -29 39 -1 52 8 43 31 -8 20 -147 19 -143 -2z"/> <path d="M6680 8072 c0 -14 11 -21 26 -15 21 8 17 23 -6 23 -11 0 -20 -4 -20 -8z"/> <path d="M6517 7983 c-14 -13 -7 -33 11 -33 19 0 42 18 42 32 0 10 -44 11 -53 1z"/> <path d="M6500 6961 c-49 -46 -58 -71 -24 -71 27 0 71 29 77 50 13 49 70 37 137 -30 54 -54 70 -61 70 -31 0 48 -108 131 -171 131 -30 0 -46 -9 -89 -49z"/> <path d="M4215 6820 c-16 -11 -42 -20 -57 -20 -29 0 -37 -17 -17 -37 18 -18 -14 -77 -52 -96 -19 -8 -42 -24 -51 -34 -28 -29 -72 -86 -93 -118 l-19 -30 -10 28 c-5 15 -13 27 -17 27 -19 0 -19 -24 0 -64 14 -28 19 -53 15 -72 -4 -21 1 -43 17 -73 21 -41 21 -44 6 -71 -21 -34 -21 -88 -2 -114 8 -11 15 -27 15 -36 0 -9 9 -33 19 -54 18 -34 19 -47 11 -120 -6 -44 -10 -117 -10 -162 0 -72 2 -83 24 -103 13 -13 27 -33 30 -46 3 -13 15 -27 26 -30 11 -4 28 -19 37 -33 9 -15 27 -44 41 -64 23 -36 24 -42 17 -135 l-7 -98 30 32 c17 18 32 38 34 44 3 10 18 9 63 -6 85 -26 131 -79 171 -192 24 -69 34 -88 48 -86 10 0 47 -16 81 -37 67 -41 147 -80 164 -80 6 0 11 -4 11 -10 0 -5 8 -10 18 -10 10 0 27 -7 38 -15 21 -16 79 -21 69 -5 -3 6 -15 10 -25 10 -10 0 -25 7 -34 15 -8 8 -21 15 -28 15 -14 0 -38 16 -90 60 -26 22 -28 28 -19 53 9 22 17 27 45 27 18 0 39 -7 46 -15 7 -8 19 -15 28 -15 8 0 32 -16 54 -36 33 -29 45 -35 67 -29 14 4 50 9 79 12 28 3 52 9 52 15 0 6 7 7 15 4 9 -3 18 1 22 11 4 11 -6 27 -30 49 -41 38 -60 70 -77 134 -7 24 -18 53 -26 64 -24 35 -18 85 16 116 17 15 30 39 30 52 1 33 21 55 72 77 26 11 81 42 123 70 42 28 80 51 84 51 4 0 16 7 26 15 11 8 70 40 130 71 61 31 155 79 211 108 91 46 164 106 164 133 0 5 5 14 12 21 18 18 38 83 38 125 0 20 4 37 9 37 5 0 13 15 17 33 9 43 61 171 85 210 10 18 19 42 19 54 0 12 5 25 10 28 6 3 10 28 10 55 0 37 6 55 26 79 17 20 26 44 27 72 2 44 -17 65 -27 31 -7 -22 -66 -52 -102 -52 -15 0 -43 -10 -64 -21 -45 -25 -66 -69 -73 -149 -3 -30 -13 -69 -23 -87 -18 -31 -18 -33 -1 -62 9 -16 17 -36 17 -44 0 -23 -40 -67 -60 -67 -14 0 -22 -11 -30 -39 -8 -32 -25 -52 -83 -98 -87 -71 -241 -149 -322 -164 -33 -6 -85 -24 -116 -39 -38 -20 -80 -31 -125 -36 -38 -3 -109 -15 -157 -25 -99 -22 -254 -18 -316 7 -18 8 -40 14 -49 14 -9 0 -36 10 -61 22 -47 23 -78 25 -147 13 -35 -6 -47 -3 -83 20 -37 25 -47 27 -96 21 l-54 -6 -37 57 c-27 43 -34 62 -29 82 16 64 17 81 6 81 -33 0 -54 129 -26 166 8 10 15 27 15 36 0 10 10 23 23 29 12 7 35 23 52 37 32 26 16 26 209 2 104 -12 264 -64 298 -95 14 -13 37 -27 51 -30 13 -4 40 -22 58 -41 55 -56 69 -44 69 59 -1 78 -22 122 -77 161 -83 58 -209 50 -143 -9 51 -46 1 -44 -110 5 -49 21 -91 32 -147 36 -43 3 -92 10 -108 15 -18 5 -50 6 -78 0 -59 -11 -67 0 -29 38 40 41 150 68 167 41 13 -21 100 -51 132 -45 18 3 41 1 52 -4 14 -8 22 -7 30 3 9 10 6 17 -14 30 -14 9 -25 23 -25 31 0 22 -29 45 -59 45 -15 0 -38 9 -51 20 -13 11 -29 20 -35 20 -7 0 -18 6 -24 14 -19 23 3 56 37 56 39 -1 134 -35 143 -53 15 -25 72 -29 121 -8 46 20 58 35 58 77 0 31 -2 30 -40 -7 -25 -26 -36 -30 -61 -25 -17 3 -43 15 -58 25 -33 23 -121 57 -171 66 -26 4 -43 0 -65 -15z"/> <path d="M6410 6751 c0 -50 4 -70 14 -74 8 -3 16 2 19 14 7 26 60 26 88 -2 22 -22 49 -19 49 6 0 8 -19 29 -42 45 -24 17 -51 37 -60 45 -18 15 -54 35 -62 35 -3 0 -6 -31 -6 -69z"/> <path d="M6327 6773 c-4 -6 -4 -52 0 -102 6 -90 14 -106 41 -79 14 14 16 90 2 104 -5 5 -16 27 -23 49 -7 21 -17 34 -20 28z"/> <path d="M6247 6512 c-15 -15 -27 -31 -27 -35 0 -17 30 -5 49 19 39 49 21 61 -22 16z"/> <path d="M6027 6320 c-4 -14 -7 -39 -7 -56 0 -20 -9 -39 -26 -55 -31 -29 -54 -71 -54 -99 0 -19 4 -20 42 -16 23 3 46 10 52 16 5 5 29 10 53 10 48 0 173 38 173 52 0 5 -13 7 -30 3 -59 -13 -176 75 -190 145 l-6 25 -7 -25z"/> <path d="M4110 6232 c0 -50 17 -60 135 -76 86 -11 115 -12 134 -3 41 20 36 36 -16 57 -26 11 -61 27 -76 35 -18 9 -57 15 -103 15 l-74 0 0 -28z"/> <path d="M6404 6234 c-65 -32 -120 -84 -127 -120 -3 -16 -9 -42 -12 -59 -6 -28 -5 -29 7 -8 7 12 27 32 43 44 58 44 175 151 175 160 0 15 -33 9 -86 -17z"/> <path d="M6082 5528 c-7 -13 -21 -36 -32 -53 -11 -16 -24 -41 -30 -55 -5 -14 -15 -33 -20 -42 -6 -10 -10 -23 -10 -28 0 -19 -72 -160 -81 -160 -11 0 -12 63 -1 76 5 5 19 38 32 74 13 36 27 69 32 75 10 11 11 55 1 55 -17 -1 -154 -254 -168 -307 -3 -14 -15 -38 -26 -52 -65 -83 -121 -165 -139 -200 -12 -22 -46 -65 -77 -95 -48 -49 -60 -56 -96 -57 -82 -2 -96 -17 -17 -18 51 0 81 4 94 14 11 8 28 15 38 15 10 0 46 13 81 29 34 16 80 37 102 47 89 38 161 93 180 134 18 41 29 48 40 30 8 -12 -29 -122 -56 -168 -23 -40 -24 -48 -2 -56 11 -4 27 4 48 24 37 36 43 37 47 8 3 -24 28 -38 28 -15 0 8 12 27 26 42 14 15 30 39 35 53 11 30 -6 373 -21 409 -15 37 0 136 23 154 17 14 19 22 11 50 -12 40 -27 47 -42 17z"/> <path d="M3974 5012 c-36 -20 -103 -75 -190 -155 -68 -63 -157 -132 -247 -191 -44 -30 -56 -43 -52 -57 7 -22 -17 -72 -56 -117 -32 -36 -36 -52 -15 -52 7 0 16 -9 19 -20 3 -12 14 -20 26 -20 20 0 161 80 256 144 34 23 85 35 85 20 0 -3 -11 -25 -25 -49 -23 -38 -24 -45 -10 -52 13 -7 -9 -34 -112 -135 -70 -70 -141 -137 -158 -150 -16 -12 -48 -39 -70 -59 -22 -20 -65 -56 -95 -80 -77 -61 -73 -57 -153 -131 -39 -38 -66 -68 -60 -68 7 0 38 24 70 54 85 78 232 188 336 251 51 30 110 69 132 85 112 84 149 103 188 102 22 -1 46 3 53 9 16 13 34 -17 34 -60 0 -16 4 -32 10 -36 13 -8 1 -35 -27 -60 -13 -11 -26 -34 -29 -52 -6 -28 -3 -33 19 -38 14 -4 50 0 80 9 30 9 70 16 89 16 25 0 36 6 43 22 6 12 30 32 54 45 29 15 53 38 69 66 13 23 30 49 38 58 8 9 14 20 12 25 -2 5 2 10 7 12 14 4 19 -47 5 -63 -9 -10 -8 -19 3 -37 12 -19 13 -59 6 -253 -8 -225 -18 -305 -63 -484 -12 -48 -21 -146 -17 -188 2 -26 21 -12 21 15 0 15 6 39 14 54 8 14 19 42 26 62 12 37 38 52 77 44 14 -2 17 -11 15 -36 -4 -40 6 -44 101 -46 67 -1 72 -2 78 -26 l7 -25 1 27 c1 31 -22 58 -49 58 -45 0 -63 23 -39 47 18 18 12 456 -7 559 -9 51 -11 89 -6 104 8 22 9 20 15 -16 4 -24 15 -44 27 -52 19 -12 20 -11 15 30 -13 96 -17 108 -33 117 -16 8 -29 36 -72 149 -10 26 -25 39 -64 57 -58 26 -81 49 -120 118 -15 27 -34 51 -42 54 -8 3 -13 11 -10 19 3 7 -6 32 -19 56 -94 170 -96 176 -95 246 1 37 1 73 1 80 -1 18 -60 14 -97 -6z m170 -334 c13 -24 13 -28 0 -28 -38 0 -110 61 -100 85 5 14 11 14 46 -6 22 -13 47 -36 54 -51z"/> <path d="M4885 4870 c3 -5 17 -10 31 -10 14 0 27 -7 30 -15 4 -9 19 -15 39 -15 18 0 38 -7 45 -15 14 -17 85 -21 75 -5 -3 6 -16 10 -28 10 -12 0 -34 6 -49 14 -15 8 -40 17 -57 21 -17 4 -31 11 -31 16 0 5 -14 9 -31 9 -17 0 -28 -4 -24 -10z"/> <path d="M3215 4849 c-18 -11 -24 -19 -14 -19 17 0 79 28 79 36 0 10 -38 1 -65 -17z"/> <path d="M3087 4803 c-24 -23 9 -31 39 -8 18 14 18 14 -7 15 -14 0 -29 -3 -32 -7z"/> <path d="M3367 4793 c-23 -27 -63 -106 -82 -164 -14 -40 -15 -56 -6 -75 9 -20 7 -32 -8 -62 -11 -20 -28 -42 -39 -49 -18 -10 -20 -9 -26 18 -3 17 -12 29 -21 29 -26 0 -91 -68 -155 -163 -65 -96 -128 -173 -217 -267 -96 -101 -228 -255 -261 -302 -33 -48 -62 -117 -62 -147 0 -10 21 6 54 42 30 31 59 57 64 57 20 0 20 -15 -3 -61 -26 -50 -32 -79 -16 -79 13 0 25 19 51 80 21 50 80 150 133 225 12 17 40 57 62 90 22 34 53 74 68 90 15 17 80 94 143 172 64 79 120 145 125 149 5 3 9 14 9 26 0 17 5 19 27 15 21 -4 37 3 67 26 44 35 66 79 59 122 -3 18 8 65 27 120 44 126 43 125 33 125 -6 0 -17 -8 -26 -17z"/> <path d="M5155 4780 c3 -5 18 -10 33 -10 21 0 24 2 12 10 -20 13 -53 13 -45 0z"/> <path d="M3000 4770 c-12 -8 -9 -10 12 -10 15 0 30 5 33 10 8 13 -25 13 -45 0z"/> <path d="M6006 4744 c-4 -15 -2 -32 3 -37 8 -8 11 0 11 26 0 44 -5 47 -14 11z"/> <path d="M5958 4585 c-22 -29 -22 -35 -3 -35 8 0 17 11 21 25 9 35 3 38 -18 10z"/> <path d="M6600 4477 c0 -41 -5 -56 -21 -71 -17 -14 -20 -24 -14 -54 4 -20 13 -44 21 -53 8 -8 14 -23 14 -32 0 -9 5 -19 10 -22 6 -3 10 -13 10 -21 0 -15 29 -86 54 -134 7 -14 16 -37 20 -52 8 -36 21 -35 35 2 16 48 61 33 61 -21 0 -15 6 -32 14 -39 8 -6 12 -18 10 -25 -3 -8 1 -24 10 -37 9 -12 16 -30 16 -40 0 -10 6 -18 14 -18 18 0 56 52 56 76 0 16 -1 16 -18 1 -11 -10 -22 -13 -31 -7 -11 6 -12 25 -6 97 14 140 9 235 -14 287 -12 25 -21 48 -21 51 0 19 -67 94 -109 124 -54 36 -87 34 -52 -3 16 -17 22 -38 24 -100 4 -73 6 -79 40 -114 21 -22 37 -48 37 -61 0 -20 -3 -22 -27 -16 -15 3 -38 17 -51 31 -14 13 -30 24 -37 24 -29 0 -61 129 -39 157 16 21 19 123 4 123 -5 0 -10 -24 -10 -53z"/> <path d="M2338 4480 c-11 -35 -10 -462 1 -479 14 -22 25 267 15 393 -6 75 -11 103 -16 86z"/> <path d="M6423 4284 c-92 -113 -166 -164 -235 -164 -29 0 -41 -6 -57 -29 -12 -16 -21 -33 -21 -38 0 -26 -113 -176 -243 -322 -42 -47 -77 -107 -77 -132 0 -5 26 9 58 31 31 22 60 40 65 40 4 0 7 -22 7 -50 0 -63 15 -59 66 17 20 30 60 81 88 113 33 36 57 76 66 106 20 64 38 74 81 42 19 -14 62 -38 97 -53 41 -19 68 -37 76 -54 14 -27 27 -106 29 -176 2 -32 6 -40 20 -39 9 1 17 -3 15 -10 -4 -24 23 -97 35 -93 7 2 11 11 9 20 -1 9 6 30 17 48 18 30 19 35 5 67 -19 45 -18 116 1 132 8 7 15 27 15 44 0 17 10 49 22 71 36 65 28 161 -29 350 -8 28 -18 59 -23 70 -4 11 -11 28 -14 38 -9 29 -33 19 -73 -29z"/> <path d="M1856 4130 c-3 -18 -6 -81 -6 -141 0 -59 -5 -120 -11 -136 -19 -48 -18 -368 2 -598 27 -319 44 -444 59 -459 6 -6 10 -31 10 -57 0 -26 12 -94 26 -151 48 -191 68 -331 53 -359 -5 -10 -8 -36 -5 -56 3 -21 5 -50 5 -65 1 -17 7 -28 14 -28 24 0 53 33 98 115 27 48 52 81 63 83 13 3 17 0 13 -10 -11 -29 33 -64 61 -49 18 9 21 7 25 -27 13 -86 19 -103 34 -97 18 6 42 -21 43 -47 0 -10 7 -18 17 -18 9 0 33 -19 54 -42 29 -33 46 -43 71 -44 18 -1 60 -7 93 -13 33 -6 96 -14 140 -17 44 -3 105 -13 135 -21 30 -9 100 -19 155 -22 86 -5 100 -8 97 -23 -1 -9 9 -29 23 -44 22 -24 30 -26 53 -18 16 6 28 18 30 32 4 28 23 29 19 0 -1 -15 5 -23 24 -28 15 -4 33 -4 40 1 8 5 24 9 37 9 23 0 30 14 11 26 -21 13 18 25 45 14 20 -7 42 -4 98 15 40 14 81 25 91 25 10 0 20 8 23 18 3 9 10 25 16 36 10 18 -2 35 -25 36 -5 0 -5 5 -2 10 3 6 19 10 35 10 15 0 30 7 34 15 7 20 43 19 55 -2 5 -10 13 -14 17 -10 5 4 4 15 -2 25 -9 13 -4 23 24 52 43 44 122 162 122 183 0 9 5 19 10 22 5 3 10 23 10 45 0 24 5 40 15 44 8 3 15 15 15 26 0 11 7 23 15 26 8 4 15 14 15 24 0 10 7 23 15 30 8 7 15 23 15 35 0 13 7 25 15 29 16 6 21 46 6 46 -5 0 -13 -10 -17 -22 -4 -13 -10 -25 -13 -28 -4 -3 -26 -44 -49 -92 -24 -48 -47 -90 -53 -93 -5 -4 -9 -15 -9 -26 0 -10 -4 -19 -8 -19 -5 0 -19 -24 -32 -53 -13 -28 -37 -65 -54 -80 -33 -33 -147 -88 -250 -122 -39 -13 -96 -34 -126 -45 -113 -44 -212 -62 -233 -41 -6 6 -18 11 -27 11 -8 0 -28 7 -44 15 -15 8 -32 15 -37 15 -10 0 -104 43 -319 147 -191 92 -180 87 -270 119 -76 27 -165 50 -233 61 -23 3 -42 13 -48 26 -15 28 -2 189 22 259 16 49 64 139 92 173 70 87 120 172 132 223 10 43 30 63 69 67 29 2 46 13 77 49 22 25 47 46 55 46 8 0 37 11 65 25 27 14 54 23 60 19 23 -14 61 9 100 61 45 60 107 92 157 82 17 -4 44 2 72 15 25 12 85 31 134 44 49 13 96 30 105 37 9 7 28 18 44 25 30 13 35 29 12 39 -29 10 -224 -16 -307 -43 -179 -57 -235 -80 -278 -119 -14 -13 -38 -30 -55 -38 -16 -8 -43 -29 -59 -46 -42 -44 -57 -41 -41 7 9 25 28 48 59 70 26 18 55 41 66 52 11 11 59 45 107 76 134 86 144 93 208 163 33 36 84 90 115 119 32 31 48 52 39 52 -22 0 -103 -63 -169 -131 -43 -44 -79 -68 -162 -107 -101 -49 -146 -83 -203 -156 -25 -32 -38 -20 -23 22 11 27 10 34 -2 42 -15 9 -6 33 53 131 29 50 32 59 18 59 -14 0 -95 -140 -98 -169 -12 -106 -17 -127 -40 -148 -30 -28 -46 -29 -64 -3 -14 19 -15 19 -38 1 -21 -16 -23 -26 -25 -104 -1 -80 -8 -109 -22 -94 -5 5 -1 74 23 355 6 73 -11 85 -22 15 -3 -27 -12 -68 -20 -93 -19 -67 -34 -156 -44 -263 -10 -107 -16 -124 -36 -107 -23 19 -26 56 -10 130 8 39 15 93 15 120 0 58 35 307 52 370 6 24 23 65 36 90 27 51 62 153 62 182 0 11 5 28 11 39 5 11 9 30 7 42 -5 29 -68 -102 -92 -193 -23 -86 -54 -153 -66 -145 -6 3 -10 39 -10 78 0 74 -11 114 -23 83 -15 -37 -36 -425 -41 -742 -1 -87 -6 -137 -14 -147 -7 -8 -9 -22 -6 -32 10 -24 -16 -38 -37 -20 -14 13 -18 12 -39 -10 -20 -21 -23 -37 -27 -122 -3 -54 -11 -112 -19 -130 -8 -17 -14 -49 -14 -72 0 -48 -20 -56 -21 -8 -3 108 -11 127 -55 127 -14 0 -25 -11 -35 -32 -8 -18 -21 -34 -29 -36 -21 -3 -60 58 -60 94 0 16 -6 38 -14 49 -9 13 -16 69 -20 165 -9 184 -23 316 -37 343 -14 26 -21 477 -9 567 14 106 21 284 12 298 -7 10 -11 5 -16 -18z m1454 -2286 c0 -16 -28 -26 -51 -19 -33 11 -22 32 16 31 19 -1 35 -6 35 -12z"/> <path d="M6720 3950 c0 -28 -8 -52 -24 -73 -24 -32 -43 -127 -30 -148 9 -15 24 9 24 39 0 29 10 28 50 -8 41 -37 100 -43 100 -10 0 14 -7 20 -22 20 -30 0 -52 15 -44 28 3 6 -1 30 -10 54 -9 24 -17 63 -17 87 -3 59 -27 69 -27 11z"/> <path d="M3055 3804 c-38 -35 -27 -38 15 -3 19 15 30 29 24 29 -6 0 -23 -11 -39 -26z"/> <path d="M7523 3662 c7 -38 -2 -106 -23 -177 -19 -62 -23 -112 -12 -131 9 -16 11 -12 17 21 3 22 12 65 20 95 17 67 27 174 19 206 -10 40 -27 28 -21 -14z"/> <path d="M7706 3370 c-4 -92 -3 -176 2 -189 8 -23 9 -23 24 15 21 53 21 162 -1 259 l-18 80 -7 -165z"/> <path d="M4366 3412 c-9 -15 0 -66 22 -112 20 -44 20 -105 -2 -129 -19 -21 -20 -50 -2 -73 15 -20 41 -24 51 -7 4 6 13 8 21 5 8 -3 21 5 30 19 19 28 75 49 110 41 32 -8 32 16 -1 69 -13 22 -25 54 -25 70 -1 44 -12 57 -43 50 -14 -4 -31 -13 -38 -21 -14 -17 -60 -18 -81 -1 -9 6 -20 32 -25 57 -6 29 -12 40 -17 32z m131 -143 c11 -20 10 -26 -4 -36 -24 -19 -32 -16 -43 13 -8 19 -7 31 1 41 16 18 31 12 46 -18z"/> <path d="M6657 3398 c-3 -13 -1 -59 4 -103 5 -44 13 -174 19 -290 14 -283 35 -450 62 -487 11 -16 26 -27 33 -24 7 2 18 -1 24 -7 8 -8 11 -3 11 21 0 18 -7 35 -16 40 -11 6 -17 27 -19 74 -1 36 -8 80 -14 99 -15 47 -61 431 -75 624 -2 28 -4 56 -5 63 -2 20 -19 13 -24 -10z"/> <path d="M6777 3363 c-14 -4 -17 -13 -15 -36 3 -27 7 -32 28 -30 14 2 40 3 58 4 32 1 42 12 22 24 -8 5 -7 11 1 21 6 8 10 14 8 15 -30 4 -88 5 -102 2z"/> <path d="M7445 3193 c-3 -38 -12 -97 -20 -133 -8 -36 -15 -83 -14 -105 l0 -40 15 50 c40 143 58 295 35 295 -5 0 -12 -30 -16 -67z"/> <path d="M2951 3160 c-13 -11 -29 -20 -37 -20 -26 0 -14 -18 15 -25 30 -6 71 8 71 25 0 4 3 15 6 24 9 23 -25 20 -55 -4z"/> <path d="M6774 3084 c-6 -23 13 -133 37 -219 4 -16 11 -55 15 -85 4 -30 13 -67 20 -82 8 -15 14 -45 14 -66 0 -22 7 -59 15 -82 20 -56 20 -227 1 -272 -8 -18 -22 -62 -32 -98 -9 -36 -22 -74 -29 -85 -15 -26 -30 -389 -15 -380 6 3 10 4 10 1 0 -9 -38 -94 -89 -196 l-46 -95 -3 -127 -4 -128 -34 -21 c-48 -29 -162 -23 -258 14 -38 15 -86 27 -106 27 -21 0 -55 6 -76 14 -22 7 -64 16 -94 20 -98 12 -201 36 -239 55 -27 14 -43 33 -61 73 -13 29 -35 71 -49 93 -42 68 -84 158 -96 205 -8 34 -16 45 -31 45 -17 0 -20 -10 -27 -80 -10 -101 -1 -205 18 -205 7 0 16 6 18 13 7 18 49 -35 92 -116 20 -37 47 -74 60 -83 13 -9 27 -24 30 -34 10 -30 35 -32 67 -5 50 42 78 34 134 -38 53 -69 143 -157 159 -157 10 0 69 -49 127 -106 l26 -27 11 39 c18 66 15 88 -32 181 -26 53 -18 63 46 56 39 -5 56 -14 97 -52 l50 -47 0 -82 c0 -46 -7 -115 -15 -155 -27 -135 -45 -267 -45 -332 0 -35 -7 -82 -14 -102 -8 -21 -20 -57 -26 -81 -6 -24 -13 -49 -16 -56 -3 -7 6 -27 20 -43 22 -26 24 -35 17 -64 -5 -19 -11 -53 -14 -77 l-5 -42 249 0 249 0 -37 53 c-21 28 -41 54 -45 57 -13 10 -36 74 -31 88 3 6 0 12 -6 12 -6 0 -11 -7 -11 -15 0 -31 -18 -13 -48 50 -39 78 -40 98 -7 119 20 13 24 22 19 41 -4 16 -2 25 5 25 22 0 61 49 61 75 0 14 9 54 21 88 27 79 24 191 -5 213 -12 9 -16 19 -11 31 4 10 9 51 10 92 2 40 6 76 9 79 3 3 6 20 6 38 0 53 16 80 83 146 36 35 81 86 102 113 21 28 41 52 46 55 4 3 22 28 41 55 34 50 52 72 120 150 54 60 125 167 173 261 23 45 51 94 62 110 36 51 63 112 63 143 0 16 5 33 10 36 6 3 10 14 10 23 0 10 15 47 34 82 19 36 42 97 51 135 10 39 24 82 31 96 9 18 14 73 16 175 1 82 5 154 9 159 18 27 31 115 25 169 -4 32 -10 55 -13 52 -6 -6 -33 -134 -39 -186 -4 -32 -13 -72 -35 -144 -5 -16 -9 -65 -9 -110 0 -56 -5 -90 -16 -111 -9 -16 -19 -55 -21 -85 -2 -30 -8 -59 -13 -64 -6 -6 -10 -20 -10 -32 0 -12 -7 -27 -15 -34 -8 -7 -17 -28 -21 -48 -4 -22 -19 -46 -40 -64 -27 -24 -32 -35 -32 -71 1 -51 -18 -96 -66 -159 -20 -26 -36 -51 -36 -57 0 -17 -22 -24 -31 -10 -6 10 -11 6 -19 -16 -6 -16 -18 -36 -26 -45 -9 -8 -23 -29 -32 -47 -31 -57 -129 -177 -214 -261 -66 -65 -87 -80 -95 -70 -7 9 -8 52 -3 133 7 110 13 138 42 202 6 11 8 27 5 35 -3 8 -8 5 -14 -11 -6 -14 -12 -20 -16 -14 -8 13 2 43 14 43 5 0 9 8 9 18 0 10 32 81 70 157 64 126 85 195 61 195 -5 0 -13 -10 -17 -22 -3 -13 -12 -30 -19 -38 -11 -13 -39 -63 -99 -174 -6 -12 -19 -32 -28 -46 -9 -14 -30 -50 -46 -80 -79 -144 -64 -5 17 160 42 85 83 199 83 229 0 14 7 25 18 28 20 5 33 29 24 44 -3 5 1 9 9 9 8 0 17 9 20 20 3 11 12 20 20 20 18 0 33 50 18 60 -15 9 18 92 34 86 9 -3 11 8 8 38 -9 73 45 158 55 88 2 -12 8 -20 13 -16 6 3 7 25 3 52 -6 44 -5 46 9 27 20 -26 34 -12 18 18 -13 24 -8 40 24 97 17 28 20 70 6 70 -15 0 -71 -50 -71 -63 0 -7 -16 -30 -36 -52 -49 -54 -80 -104 -88 -142 -12 -53 -115 -213 -138 -213 -17 0 -6 37 33 113 35 67 40 86 36 121 -3 22 -8 49 -12 59 -5 13 -2 17 13 17 26 0 38 30 15 37 -27 7 -29 91 -3 115 31 29 34 61 10 109 -28 54 -73 93 -125 109 -72 22 -85 29 -95 55 -12 32 -18 32 -26 -1z m287 -751 c-5 -10 -12 -26 -15 -35 -7 -23 -26 -23 -26 -1 0 16 28 51 43 52 4 1 3 -7 -2 -16z"/> <path d="M1992 2938 c6 -18 28 -21 28 -4 0 9 -7 16 -16 16 -9 0 -14 -5 -12 -12z"/> <path d="M7382 2830 c0 -19 2 -27 5 -17 2 9 2 25 0 35 -3 9 -5 1 -5 -18z"/> <path d="M1654 2623 c4 -21 10 -103 15 -183 5 -80 13 -174 19 -210 6 -36 16 -119 21 -185 6 -66 16 -150 21 -188 14 -94 13 -118 -7 -133 -14 -9 -15 -16 -7 -24 18 -18 4 -49 -29 -67 -30 -15 -31 -15 -53 13 -37 45 -54 114 -54 213 0 50 -4 91 -8 91 -19 0 -30 -232 -26 -580 3 -296 1 -376 -11 -420 -23 -86 -28 -164 -16 -217 23 -98 8 -496 -25 -638 -21 -90 -20 -95 20 -95 32 0 35 3 50 53 9 28 21 81 25 117 7 47 58 224 75 257 1 1 13 4 28 8 24 6 30 2 49 -29 24 -42 31 -43 69 -16 l28 20 24 -38 c13 -20 27 -45 31 -55 4 -10 13 -17 20 -14 15 5 15 99 -2 187 -7 36 -14 76 -16 90 -8 55 -26 128 -43 178 -17 46 -17 58 -7 100 7 27 16 82 20 124 6 61 4 81 -10 108 -10 20 -15 45 -12 64 11 64 20 91 32 101 7 6 16 26 20 45 4 19 12 40 17 47 12 15 24 63 38 153 6 36 18 80 28 98 16 32 32 42 32 21 0 -15 39 -69 51 -69 23 0 31 55 18 130 -7 41 -13 100 -13 130 -1 38 -11 79 -34 132 -17 42 -32 85 -32 95 0 11 -7 28 -15 39 -8 10 -15 33 -15 50 0 20 -7 37 -20 45 -12 8 -21 27 -22 44 -2 43 -15 55 -59 55 -34 0 -39 -3 -39 -24 0 -13 -7 -29 -15 -36 -17 -14 -20 -40 -5 -40 6 0 10 -5 10 -10 0 -6 -11 -3 -24 5 -24 16 -26 21 -56 185 -5 25 -9 70 -9 101 -1 42 -9 71 -31 115 -16 32 -30 67 -30 77 0 9 -5 17 -11 17 -7 0 -9 -13 -5 -37z"/> <path d="M4028 2644 c-5 -4 -8 -19 -8 -33 0 -18 3 -22 11 -14 6 6 9 21 7 33 -1 12 -6 18 -10 14z"/> <path d="M2694 2425 c-4 -14 -3 -29 0 -33 9 -8 26 18 26 41 0 26 -19 20 -26 -8z"/> <path d="M7227 2426 c-4 -10 -5 -21 -2 -24 9 -9 17 6 13 25 -3 17 -4 17 -11 -1z"/> <path d="M7197 2360 c-6 -24 8 -36 17 -14 8 22 7 34 -3 34 -5 0 -11 -9 -14 -20z"/> <path d="M7166 2293 c-4 -13 -12 -23 -17 -23 -5 0 -9 -9 -9 -19 0 -11 -7 -26 -15 -35 -8 -8 -15 -23 -15 -33 0 -15 4 -14 20 7 11 14 23 36 27 50 3 14 10 28 16 31 5 4 7 15 5 25 -4 17 -5 17 -12 -3z"/> <path d="M3896 2214 c-3 -8 -6 -33 -6 -54 0 -48 46 -124 69 -115 27 11 33 10 38 -2 2 -6 -4 -13 -14 -15 -15 -3 -13 -7 12 -24 19 -11 29 -26 27 -36 -5 -24 93 -125 148 -153 25 -13 58 -37 74 -54 17 -17 48 -39 70 -50 91 -41 172 -71 193 -71 41 0 60 41 67 147 4 54 4 106 1 115 -8 19 -62 38 -112 38 -60 0 -43 -17 60 -58 19 -8 27 -19 27 -37 0 -14 -7 -28 -15 -31 -20 -8 -83 31 -121 75 -28 31 -34 34 -48 22 -9 -8 -21 -33 -27 -57 -15 -58 -30 -70 -63 -49 -14 9 -34 32 -45 51 -11 19 -36 43 -54 54 -35 21 -77 71 -77 93 0 7 -25 40 -55 72 -30 33 -55 65 -55 71 0 10 -34 44 -71 72 -14 10 -18 10 -23 -4z m534 -435 c0 -20 -38 -8 -44 14 -12 45 -6 53 19 24 14 -15 25 -32 25 -38z m80 -20 c0 -12 -7 -19 -20 -19 -24 0 -38 29 -20 40 19 12 40 1 40 -21z"/> <path d="M3027 1797 c-24 -19 -49 -24 -163 -32 -79 -6 -141 -7 -151 -2 -16 10 -402 2 -412 -8 -8 -9 14 -40 30 -41 35 -3 98 -38 108 -60 6 -13 15 -24 20 -24 6 0 32 -19 59 -43 26 -24 64 -49 83 -56 19 -7 42 -17 51 -22 10 -5 41 -18 69 -28 40 -16 55 -17 69 -9 14 9 28 8 61 -7 23 -11 47 -20 53 -20 6 -1 19 -5 28 -9 10 -5 26 -1 42 9 22 15 33 16 70 6 25 -6 61 -21 81 -32 35 -21 37 -21 102 -5 36 9 78 14 92 11 21 -4 35 2 69 33 70 63 113 132 82 132 -5 0 -24 -16 -41 -35 -21 -23 -38 -33 -49 -30 -10 3 -23 -2 -30 -10 -12 -14 -15 -14 -34 3 -12 10 -35 24 -53 31 -42 17 -50 41 -21 63 31 23 13 41 -44 41 -32 0 -49 6 -67 23 -13 14 -35 27 -48 30 -12 4 -23 12 -23 20 0 8 -7 14 -15 14 -24 0 -17 36 10 48 26 12 34 32 13 31 -7 0 -26 -10 -41 -22z"/> <path d="M3348 1647 c-20 -7 -20 -9 -5 -24 21 -21 150 -26 142 -5 -3 7 0 10 6 7 12 -8 41 14 34 25 -6 10 -149 8 -177 -3z"/> <path d="M6459 1533 c-39 -47 -59 -122 -40 -152 6 -9 11 -1 16 29 4 24 11 48 16 54 5 6 18 23 30 39 11 15 27 27 35 27 8 0 12 5 9 10 -10 16 -51 12 -66 -7z"/> <path d="M6442 1268 c5 -15 28 -18 29 -3 0 6 -7 12 -17 13 -10 3 -15 -1 -12 -10z"/> <path d="M6225 556 c-38 -13 -96 -31 -127 -41 -31 -9 -62 -23 -68 -30 -20 -25 -40 -118 -40 -195 -1 -41 -6 -97 -11 -125 -21 -102 -22 -134 -5 -141 19 -7 258 52 307 77 58 29 62 51 53 276 -8 164 -12 198 -24 200 -8 1 -46 -8 -85 -21z m55 -131 c0 -8 -6 -15 -14 -15 -20 0 -29 17 -14 23 22 9 28 7 28 -8z m-70 -24 c0 -12 -38 -21 -57 -14 -12 5 -12 7 -1 14 17 11 58 11 58 0z m68 -78 c-2 -9 -12 -18 -23 -19 -78 -11 -111 -19 -120 -30 -5 -8 -25 -17 -42 -20 -29 -6 -33 -4 -33 14 0 25 37 39 126 48 36 4 67 11 70 15 9 16 26 10 22 -8z m-4 -102 c7 -10 -69 -39 -134 -51 -25 -4 -56 -11 -69 -15 -19 -7 -22 -5 -19 11 3 19 9 21 113 47 71 18 102 20 109 8z"/> <path d="M3980 460 c0 -5 16 -10 35 -10 19 0 35 5 35 10 0 6 -16 10 -35 10 -19 0 -35 -4 -35 -10z"/> <path d="M4078 385 c-7 -80 -18 -86 -74 -36 -52 46 -64 50 -64 21 0 -35 54 -103 85 -106 37 -4 41 -11 22 -32 -19 -21 -22 -57 -7 -67 20 -12 73 149 74 225 1 33 -3 45 -15 48 -13 2 -17 -8 -21 -53z"/> <path d="M6818 338 c9 -9 15 -9 24 0 9 9 7 12 -12 12 -19 0 -21 -3 -12 -12z"/> <path d="M3890 305 c0 -8 5 -15 10 -15 6 0 10 7 10 15 0 8 -4 15 -10 15 -5 0 -10 -7 -10 -15z"/> <path d="M3942 240 c-42 -5 -42 -5 -27 -27 22 -31 95 -30 95 2 0 22 -24 31 -68 25z"/> </g> </svg> 