 <svg  version="1.0" xmlns="http://www.w3.org/2000/svg"  width="450.000000pt" height="450.000000pt" viewBox="0 0 450.000000 450.000000"  preserveAspectRatio="xMidYMid meet">  <g transform="translate(0.000000,450.000000) scale(0.100000,-0.100000)" fill="#2a2828" stroke="none"> <path d="M2356 4213 c-10 -3 -32 -13 -49 -23 -26 -16 -35 -17 -61 -6 -17 6 -60 11 -96 9 -52 -2 -72 -8 -104 -30 -23 -16 -45 -38 -51 -48 -5 -11 -16 -20 -24 -20 -18 0 -33 -51 -25 -84 3 -14 19 -40 35 -58 16 -19 29 -38 29 -42 0 -18 -30 -19 -52 -2 -45 34 -121 56 -197 57 -65 1 -72 0 -56 -12 10 -8 17 -15 14 -17 -2 -2 -21 -14 -41 -26 -21 -12 -38 -27 -38 -31 0 -5 -21 -21 -46 -36 -25 -15 -55 -41 -65 -58 -10 -17 -19 -27 -19 -21 0 5 -11 -11 -25 -37 -28 -53 -31 -79 -12 -109 10 -17 9 -22 -6 -33 -16 -12 -16 -16 -2 -42 18 -36 20 -104 3 -104 -7 0 -24 9 -38 20 -35 28 -52 26 -44 -5 5 -20 1 -27 -17 -34 -23 -10 -24 -10 -2 -10 15 -1 25 -11 34 -35 9 -25 20 -36 39 -40 29 -5 40 -37 40 -122 0 -51 -17 -67 -66 -62 -24 2 -39 -2 -42 -10 -7 -23 20 -72 47 -85 19 -9 26 -20 26 -42 0 -17 6 -40 12 -52 7 -12 10 -28 7 -37 -3 -9 3 -19 16 -26 23 -12 25 -57 1 -52 -9 2 -6 -8 8 -31 12 -19 21 -46 21 -60 0 -14 4 -28 9 -31 10 -7 35 -75 57 -156 8 -30 20 -57 26 -61 6 -4 7 -12 3 -19 -4 -7 -10 -8 -14 -4 -3 5 -21 17 -38 27 -32 17 -33 17 -33 0 1 -10 6 -28 13 -40 13 -23 84 -83 99 -83 12 0 32 -20 46 -46 9 -16 8 -26 -3 -40 -21 -27 -18 -68 5 -89 31 -28 24 -44 -26 -66 -64 -29 -84 -66 -84 -157 0 -64 -4 -81 -35 -139 -19 -36 -35 -77 -35 -90 0 -16 -10 -29 -30 -41 -16 -9 -30 -20 -30 -24 0 -4 -39 -19 -86 -34 -81 -24 -179 -63 -161 -64 11 0 159 38 184 47 16 6 16 5 4 -10 -12 -15 -10 -17 18 -17 39 0 39 -6 -1 -43 -25 -22 -27 -26 -10 -17 13 6 26 9 29 6 10 -10 -10 -28 -51 -47 -22 -10 -35 -19 -28 -19 7 0 31 9 53 21 23 11 43 18 46 15 11 -11 -19 -35 -63 -52 -43 -16 -45 -16 -59 2 -13 16 -14 17 -9 2 6 -19 -10 -25 -21 -8 -3 6 -22 10 -41 10 -24 0 -34 -4 -34 -16 0 -22 -22 -12 -40 19 -16 28 -7 48 12 29 7 -7 27 -12 45 -12 26 0 33 4 33 20 0 27 14 25 28 -3 11 -21 11 -20 6 6 -5 21 -2 27 10 27 10 0 31 7 49 17 29 15 30 17 12 24 -31 12 -76 10 -120 -6 -22 -8 -59 -14 -82 -15 -24 0 -43 -4 -43 -9 0 -4 12 -7 28 -5 15 2 20 1 12 -3 -8 -3 -33 -20 -55 -38 -22 -17 -53 -40 -70 -50 -27 -17 -28 -19 -10 -25 14 -5 22 -2 27 10 7 18 67 60 87 60 22 0 10 -15 -30 -38 -47 -27 -45 -40 2 -23 38 13 69 14 69 3 0 -5 -28 -16 -62 -27 -35 -10 -67 -21 -73 -25 -9 -7 -103 -40 -113 -40 -2 0 -2 7 2 15 3 9 0 15 -10 15 -11 0 -13 -6 -9 -21 6 -19 4 -21 -16 -16 -28 7 -79 -21 -72 -40 3 -7 -1 -13 -10 -13 -8 0 -18 6 -20 13 -4 8 -6 7 -6 -3 -1 -20 -110 -53 -128 -38 -9 7 -21 4 -42 -11 -16 -12 -33 -21 -39 -21 -5 0 -16 -10 -24 -22 l-15 -23 -17 34 c-10 18 -16 34 -14 36 2 1 27 15 57 30 53 26 55 27 69 9 13 -18 14 -18 8 3 -6 19 0 25 40 42 26 12 54 21 63 21 17 1 61 30 45 30 -5 0 2 9 16 20 20 16 21 19 5 14 -11 -4 -32 -16 -47 -26 -14 -10 -34 -18 -43 -18 -9 0 -13 -5 -10 -10 3 -6 -4 -10 -18 -10 -13 0 -62 -19 -108 -42 -47 -23 -100 -42 -119 -42 -19 -1 -45 -7 -57 -14 -35 -20 -113 -131 -165 -237 -48 -98 -67 -152 -188 -547 l-60 -198 0 -150 0 -150 1103 0 1104 0 6 128 c4 70 7 196 7 280 0 94 4 152 10 152 6 0 10 -5 10 -11 0 -5 5 -7 11 -3 8 5 9 -60 4 -242 -3 -137 -9 -261 -11 -276 l-4 -28 290 0 291 0 -5 33 c-13 78 -28 219 -24 223 3 2 31 9 64 15 69 13 226 6 299 -14 l50 -14 3 -122 3 -121 38 0 c37 0 39 2 46 38 4 20 10 42 15 47 4 6 10 21 13 35 3 14 3 -8 0 -48 l-5 -73 183 3 184 3 3 24 c2 13 0 21 -6 17 -6 -4 -8 2 -5 14 3 11 9 20 13 20 8 0 27 59 35 110 12 79 15 92 25 111 6 10 8 24 5 29 -3 5 1 26 10 46 8 20 19 62 25 93 17 98 49 237 49 216 1 -12 -15 -113 -34 -225 -20 -113 -40 -236 -45 -275 -5 -38 -14 -88 -20 -110 -19 -76 -20 -75 75 -75 75 0 85 2 85 18 0 10 5 23 11 29 7 7 11 44 11 90 -1 89 16 163 36 163 8 0 12 -6 8 -15 -3 -8 -2 -15 3 -15 4 0 9 -15 10 -32 1 -18 3 -44 5 -58 2 -14 -1 -28 -7 -31 -6 -4 -6 -28 1 -65 5 -33 9 -60 8 -60 -8 -7 -47 -14 -43 -8 3 5 -1 15 -9 21 -8 8 -15 9 -19 3 -3 -6 -1 -10 4 -10 6 0 11 -7 11 -15 0 -12 14 -15 65 -15 39 0 65 4 65 11 0 6 -14 70 -30 142 -17 73 -39 175 -50 227 l-19 95 3 -72 c2 -39 -1 -77 -6 -85 -7 -9 -8 -4 -5 15 3 21 1 27 -10 23 -8 -3 -12 -2 -9 2 2 4 7 30 10 58 3 28 8 58 11 66 17 43 -137 574 -177 613 -13 12 -2 -28 19 -68 21 -42 54 -155 39 -135 -11 15 -15 8 -35 -53 -12 -38 -34 -94 -48 -125 l-25 -56 -25 41 c-14 24 -29 38 -35 35 -6 -4 -8 -2 -4 4 12 20 -149 164 -247 220 -119 69 -157 85 -253 112 -94 25 -151 57 -219 121 -77 73 -218 178 -229 172 -5 -4 -7 0 -4 9 13 33 59 182 61 199 2 10 6 22 10 25 11 11 8 26 -3 19 -5 -3 -10 -2 -10 4 0 5 7 14 16 19 11 6 13 16 9 35 -4 15 -10 25 -14 23 -9 -6 -1 66 9 79 4 6 4 19 -1 30 -4 11 -8 32 -8 46 -1 20 -6 25 -23 24 -13 -1 -24 -9 -26 -17 -2 -9 -10 -19 -19 -22 -13 -5 -14 -4 -3 9 7 8 9 15 5 15 -11 0 -95 -63 -95 -71 0 -4 -13 -10 -30 -14 -22 -5 -30 -12 -30 -28 0 -17 -2 -19 -9 -8 -7 11 -14 10 -40 -8 -27 -20 -30 -20 -25 -4 5 16 4 16 -10 -1 -16 -19 -16 -19 -16 2 0 13 -6 22 -16 22 -8 0 -13 4 -10 9 3 5 -2 12 -11 16 -10 3 -19 1 -21 -4 -4 -13 -22 -4 -22 10 0 6 5 7 11 3 7 -4 10 0 7 11 -1 10 -12 23 -23 29 -11 6 -22 12 -24 13 -2 2 2 9 9 18 10 12 10 18 -1 32 -12 15 -12 16 8 11 12 -3 25 -1 28 6 4 8 6 8 11 -1 10 -21 34 -2 34 28 0 29 -28 56 -67 63 -39 8 -93 35 -93 47 0 10 -3 10 -11 2 -9 -9 -15 -8 -26 3 -8 8 -19 12 -24 8 -18 -11 -80 20 -85 43 -4 13 -10 23 -14 23 -4 0 -10 8 -14 18 -3 9 -9 23 -12 30 -5 11 0 10 17 -2 23 -15 137 -46 171 -46 11 0 15 6 11 20 -4 14 -14 20 -34 20 -22 0 -29 5 -29 20 0 25 19 25 90 0 30 -11 64 -19 75 -20 11 0 29 -6 40 -14 11 -7 29 -16 40 -19 12 -4 9 -5 -8 -3 -15 2 -30 -1 -33 -5 -8 -14 -41 -10 -58 6 -9 9 -17 11 -21 5 -3 -5 -16 -10 -28 -10 -20 0 -19 -2 6 -15 16 -8 43 -14 60 -14 59 2 222 -14 233 -22 17 -13 81 12 95 37 17 33 -1 52 -47 48 -20 -1 -47 2 -61 7 -18 7 -25 5 -29 -6 -4 -8 -10 -15 -15 -15 -6 0 -5 9 1 20 9 17 7 20 -15 26 -23 6 -25 10 -21 45 5 38 -9 56 -16 22 -3 -17 -4 -17 -11 0 -7 20 40 68 75 77 18 5 16 9 -20 32 -35 23 -42 25 -52 13 -13 -16 -45 -21 -36 -6 3 5 -19 27 -49 49 l-54 41 -25 -20 c-44 -34 -127 -14 -126 31 1 21 48 53 70 47 25 -6 65 33 90 90 21 49 82 113 106 113 21 0 94 -77 110 -115 16 -39 35 -55 27 -24 -5 17 -2 20 13 16 16 -5 95 -14 197 -22 29 -2 38 19 12 29 -21 8 -19 36 3 36 15 0 82 -20 122 -37 8 -3 18 -5 23 -5 15 4 2 -182 -19 -250 -11 -35 25 -18 56 27 17 25 37 45 45 45 8 0 15 4 15 9 0 15 32 22 45 11 15 -12 45 12 45 35 0 8 6 12 14 9 7 -3 16 2 20 11 3 9 2 14 -3 10 -5 -3 -8 2 -7 10 3 18 16 32 16 17 0 -22 19 -12 34 19 14 29 14 33 -4 57 -20 27 -20 27 0 68 11 22 34 54 50 69 17 16 30 38 30 50 0 11 5 26 11 32 8 8 8 13 0 17 -16 10 -13 26 4 26 8 0 15 4 15 9 0 6 -9 8 -21 6 -17 -3 -19 -2 -9 10 6 7 15 26 20 42 l8 28 2 -30 c1 -16 5 -38 9 -49 7 -17 9 -16 38 8 45 38 67 102 60 173 -3 32 -11 59 -16 61 -5 2 -7 10 -4 19 4 11 2 14 -5 9 -7 -4 -12 -2 -12 4 0 6 -4 8 -10 5 -5 -3 -10 -3 -10 2 0 4 -10 21 -23 36 l-22 28 1 -28 c1 -15 6 -39 11 -53 6 -14 13 -35 17 -48 7 -21 6 -22 -21 -10 -38 17 -49 35 -52 83 -1 19 -7 25 -23 26 -16 1 -18 3 -6 6 12 3 38 49 38 68 0 2 -10 5 -22 8 -17 5 -19 9 -9 21 10 12 7 14 -23 12 -20 -2 -36 1 -36 5 0 5 11 9 23 9 13 0 32 9 42 20 17 19 17 20 1 20 -9 0 -14 5 -11 10 6 9 -8 14 -27 11 -5 0 -8 5 -8 12 0 8 -4 7 -10 -3 -9 -13 -11 -13 -20 0 -7 11 -10 7 -11 -20 l-1 -35 -9 30 c-6 17 -12 52 -13 78 -3 40 -2 46 10 36 23 -19 26 -4 11 48 -8 27 -11 56 -7 64 4 8 11 34 15 59 l7 45 -27 -28 c-14 -15 -30 -25 -36 -22 -15 10 -36 58 -42 99 -7 42 -19 56 -54 56 -12 0 -31 9 -41 20 -18 20 -72 23 -89 7 -10 -11 -33 -8 -33 4 0 6 9 13 19 16 22 6 35 45 26 75 -4 12 -12 17 -22 14 -9 -4 -13 -1 -10 6 2 7 11 12 20 12 13 -1 14 2 4 17 -6 10 -14 15 -17 11 -11 -15 -30 -11 -30 6 0 10 -12 22 -30 29 -23 9 -28 8 -23 0 4 -7 10 -32 14 -57 3 -25 10 -54 15 -65 6 -15 1 -13 -18 8 l-26 27 -7 -37 -8 -38 -8 35 c-4 19 -6 49 -3 67 5 44 -28 82 -80 90 -31 5 -38 3 -34 -8 3 -8 13 -15 24 -15 10 -1 25 -2 32 -3 6 -1 12 -8 12 -17 0 -12 -3 -14 -12 -6 -7 5 -53 9 -103 9 -68 -1 -93 -5 -102 -17 -7 -9 -12 -10 -13 -3 0 12 -17 12 -36 0 -13 -8 -135 12 -148 24 -6 6 -3 9 8 9 9 0 15 4 11 10 -3 5 -12 7 -19 4 -8 -3 -17 -1 -21 5 -4 7 4 11 19 11 17 0 26 5 26 16 0 13 -7 15 -33 10 -33 -6 -34 -6 -33 29 2 48 42 75 110 75 42 0 47 2 36 15 -12 14 -54 18 -94 8z m-136 -53 c0 -5 -2 -10 -4 -10 -3 0 -8 5 -11 10 -3 6 -1 10 4 10 6 0 11 -4 11 -10z m-60 -10 c0 -5 -5 -10 -11 -10 -5 0 -7 5 -4 10 3 6 8 10 11 10 2 0 4 -4 4 -10z m-80 -71 c0 -5 -5 -7 -12 -3 -7 4 -8 3 -4 -4 4 -7 17 -12 29 -13 12 0 16 -3 10 -6 -7 -2 -29 1 -49 7 -27 9 -33 15 -23 21 19 12 49 11 49 -2z m637 -36 c-4 -3 -10 -3 -14 0 -3 4 0 7 7 7 7 0 10 -3 7 -7z m73 -83 c0 -15 -5 -12 -26 11 -19 22 -19 22 4 10 12 -6 22 -16 22 -21z m-420 16 c0 -3 -5 -8 -12 -12 -7 -4 -8 -3 -4 4 7 12 16 16 16 8z m310 -46 c0 -5 -13 -10 -29 -10 -17 0 -33 5 -36 10 -4 6 8 10 29 10 20 0 36 -4 36 -10z m70 -17 c0 -22 -2 -25 -10 -13 -13 20 -13 40 0 40 6 0 10 -12 10 -27z m-980 -2 c0 -4 -15 -5 -32 -2 -32 4 -32 5 -8 11 26 7 40 4 40 -9z m1137 -28 c-4 -3 -7 0 -7 7 0 7 3 10 7 7 3 -4 3 -10 0 -14z m-947 -7 c0 -2 -8 -10 -17 -17 -16 -13 -17 -12 -4 4 13 16 21 21 21 13z m-383 -63 c-4 -3 -10 -3 -14 0 -3 4 0 7 7 7 7 0 10 -3 7 -7z m1482 -33 c35 -16 42 -24 38 -40 -3 -11 -1 -23 4 -26 15 -9 10 -27 -6 -20 -23 9 -18 -10 6 -20 20 -9 20 -11 6 -26 -10 -9 -12 -19 -6 -25 5 -5 -4 -7 -26 -5 -23 3 -32 8 -27 16 4 6 7 21 7 34 1 20 -3 22 -28 16 -29 -6 -29 -6 -13 17 15 22 23 49 11 37 -3 -3 -17 4 -30 16 -17 15 -21 24 -13 33 14 17 25 16 77 -7z m-1523 -85 c-3 -13 -9 -32 -15 -42 -9 -15 -10 -14 -11 13 0 16 5 35 12 42 17 17 19 15 14 -13z m-36 -25 c0 -11 -4 -20 -10 -20 -5 0 -10 9 -10 20 0 11 5 20 10 20 6 0 10 -9 10 -20z m945 -70 c3 -5 4 -10 1 -10 -3 0 -8 5 -11 10 -3 6 -4 10 -1 10 3 0 8 -4 11 -10z m511 -132 c8 -16 13 -32 11 -34 -8 -8 -57 57 -51 67 8 13 22 2 40 -33z m59 32 c3 -5 4 -10 1 -10 -3 0 -8 5 -11 10 -3 6 -4 10 -1 10 3 0 8 -4 11 -10z m-258 -37 c-4 -3 -7 0 -7 7 0 7 3 10 7 7 3 -4 3 -10 0 -14z m294 -10 c13 -16 12 -17 -3 -4 -10 7 -18 15 -18 17 0 8 8 3 21 -13z m-944 0 c-4 -3 -10 -3 -14 0 -3 4 0 7 7 7 7 0 10 -3 7 -7z m680 -10 c-4 -3 -7 0 -7 7 0 7 3 10 7 7 3 -4 3 -10 0 -14z m-1365 -20 c2 -20 8 -27 21 -25 9 2 17 -2 17 -8 0 -22 -41 -10 -50 16 -12 32 -13 44 -1 44 5 0 11 -12 13 -27z m1703 7 c3 -5 4 -10 1 -10 -3 0 -8 5 -11 10 -3 6 -4 10 -1 10 3 0 8 -4 11 -10z m52 -62 c-3 -7 -5 -2 -5 12 0 14 2 19 5 13 2 -7 2 -19 0 -25z m-634 -51 c-13 -24 -37 -5 -28 23 6 20 9 21 22 7 10 -10 12 -20 6 -30z m422 3 c3 -5 4 -10 1 -10 -3 0 -8 5 -11 10 -3 6 -4 10 -1 10 3 0 8 -4 11 -10z m-388 -27 c-4 -3 -7 0 -7 7 0 7 3 10 7 7 3 -4 3 -10 0 -14z m190 -20 c-3 -10 -5 -4 -5 12 0 17 2 24 5 18 2 -7 2 -21 0 -30z m54 -103 c5 0 9 15 10 33 0 32 0 31 17 -13 13 -32 24 -46 40 -48 13 -2 22 2 22 10 0 10 2 10 9 -1 7 -10 13 -11 31 -1 12 6 24 9 27 6 4 -3 -10 -13 -30 -21 -33 -14 -41 -14 -74 0 -38 16 -52 10 -53 -22 0 -7 -4 -13 -10 -13 -15 0 -12 19 6 37 14 15 14 17 0 25 -18 10 -46 59 -46 80 0 7 9 -6 21 -29 12 -24 25 -43 30 -43z m146 23 c-4 -3 -7 0 -7 7 0 7 3 10 7 7 3 -4 3 -10 0 -14z m214 -64 c-15 -14 -20 -14 -36 -3 -16 12 -17 17 -5 39 11 21 16 23 29 12 12 -9 13 -9 7 1 -4 6 -4 18 1 24 4 8 10 0 14 -22 6 -27 3 -39 -10 -51z m-624 9 c-3 -7 -5 -2 -5 12 0 14 2 19 5 13 2 -7 2 -19 0 -25z m738 2 c-3 -5 -11 -10 -16 -10 -6 0 -7 5 -4 10 3 6 11 10 16 10 6 0 7 -4 4 -10z m-1838 -7 c-4 -3 -10 -3 -14 0 -3 4 0 7 7 7 7 0 10 -3 7 -7z m1792 -61 l26 -23 -32 17 c-18 10 -33 24 -33 32 0 7 -4 10 -10 7 -6 -4 -7 1 -3 11 5 15 7 14 16 -2 5 -11 22 -29 36 -42z m-342 11 c-4 -3 -7 0 -7 7 0 7 3 10 7 7 3 -4 3 -10 0 -14z m240 -10 c-4 -3 -7 0 -7 7 0 7 3 10 7 7 3 -4 3 -10 0 -14z m-791 -28 c-4 -14 -11 -25 -16 -25 -13 0 -13 16 1 42 14 26 23 16 15 -17z m504 6 c0 -10 -6 -21 -14 -24 -11 -4 -11 -1 -2 19 13 29 16 30 16 5z m343 -1 c3 -11 1 -18 -4 -14 -5 3 -9 12 -9 20 0 20 7 17 13 -6z m156 -11 c-10 -6 -10 -11 0 -22 9 -12 9 -16 -1 -19 -19 -7 -41 41 -27 58 9 11 15 12 26 3 11 -10 11 -14 2 -20z m-197 -9 c6 -18 19 -32 33 -36 31 -8 37 -45 11 -66 -19 -14 -24 -14 -53 2 -18 9 -29 20 -26 24 4 4 -1 4 -11 0 -16 -6 -18 -3 -14 19 3 15 1 27 -3 27 -5 0 -9 10 -9 23 l0 22 19 -24 c10 -14 17 -31 14 -38 -3 -8 0 -13 8 -11 8 2 13 -3 12 -9 -2 -7 2 -13 7 -13 14 0 13 23 -2 38 -9 9 -9 12 1 12 8 0 11 6 7 15 -3 8 -9 22 -12 30 -3 8 -3 15 0 15 4 0 12 -14 18 -30z m-104 -15 c-3 -3 -9 2 -12 12 -6 14 -5 15 5 6 7 -7 10 -15 7 -18z m337 15 c3 -5 4 -10 1 -10 -3 0 -8 5 -11 10 -3 6 -4 10 -1 10 3 0 8 -4 11 -10z m-687 -17 c-10 -2 -18 -9 -18 -14 0 -6 -4 -7 -10 -4 -19 12 -10 25 18 24 16 -1 20 -3 10 -6z m349 -35 c-3 -8 -6 -5 -6 6 -1 11 2 17 5 13 3 -3 4 -12 1 -19z m-247 -3 c-7 -8 -17 -15 -22 -15 -11 0 14 29 26 30 5 0 3 -7 -4 -15z m-699 -9 c5 3 9 0 9 -5 0 -6 -7 -11 -15 -11 -8 0 -15 8 -14 18 0 10 3 12 6 4 2 -6 9 -10 14 -6z m469 -6 c0 -5 -5 -10 -11 -10 -5 0 -7 5 -4 10 3 6 8 10 11 10 2 0 4 -4 4 -10z m556 -98 c-8 -7 -65 92 -59 101 3 5 18 -15 34 -44 16 -29 27 -54 25 -57z m-369 91 c-4 -3 -10 -3 -14 0 -3 4 0 7 7 7 7 0 10 -3 7 -7z m-154 -18 c-3 -9 -8 -14 -10 -11 -3 3 -2 9 2 15 9 16 15 13 8 -4z m37 -15 c8 -14 7 -25 -2 -40 -19 -30 -24 -25 -20 20 5 46 7 48 22 20z m634 -45 c-4 -8 -11 -15 -16 -15 -6 0 -5 6 2 15 7 8 14 15 16 15 2 0 1 -7 -2 -15z m-54 -45 c0 -6 -7 -13 -16 -17 -8 -3 -13 -12 -9 -21 5 -13 3 -13 -12 -1 -15 12 -16 12 -10 -3 3 -10 2 -18 -3 -18 -5 0 -9 11 -8 24 1 14 6 23 10 20 4 -2 13 2 20 10 15 18 28 20 28 6z m-760 -40 c0 -11 -4 -20 -9 -20 -5 0 -11 9 -14 20 -3 13 0 20 9 20 8 0 14 -9 14 -20z m641 -7 c13 -16 12 -17 -3 -4 -17 13 -22 21 -14 21 2 0 10 -8 17 -17z m34 -43 c-3 -5 -16 -10 -28 -9 -21 0 -21 1 -2 9 28 12 37 12 30 0z m45 -12 c0 -17 -3 -19 -9 -9 -6 9 -11 10 -15 2 -4 -6 -13 -11 -19 -11 -7 0 -1 9 13 20 31 24 30 24 30 -2z m-1221 -30 c1 15 31 16 31 1 0 -5 4 -8 10 -4 15 9 60 -6 60 -21 0 -7 -7 -17 -16 -22 -9 -5 -15 -15 -13 -21 3 -8 11 -6 24 6 24 21 57 26 67 10 7 -11 13 13 9 36 0 4 4 7 9 7 6 0 10 -4 10 -10 0 -5 17 -8 38 -7 33 2 37 -1 36 -20 0 -13 3 -23 7 -23 17 0 18 -34 2 -51 -10 -10 -24 -25 -32 -34 -7 -9 -16 -14 -19 -11 -3 4 3 12 13 20 10 7 14 16 8 19 -11 7 -126 -49 -131 -64 -2 -5 -9 -9 -15 -9 -6 0 -19 -7 -29 -16 -15 -14 -20 -15 -35 -3 -14 12 -16 12 -8 0 6 -10 4 -12 -5 -6 -7 4 -23 9 -34 11 -39 4 -77 24 -70 35 4 7 0 9 -13 5 -15 -5 -19 -1 -21 20 -1 19 10 38 42 70 25 25 48 58 52 76 6 29 8 30 15 13 4 -11 8 -14 8 -7z m738 15 c-4 -3 -10 -3 -14 0 -3 4 0 7 7 7 7 0 10 -3 7 -7z m398 -36 c15 -4 14 -5 -7 -6 -21 -1 -28 4 -28 17 0 11 3 13 8 6 4 -7 16 -14 27 -17z m-995 3 c0 -5 -7 -7 -15 -4 -8 4 -15 8 -15 10 0 2 7 4 15 4 8 0 15 -4 15 -10z m920 0 c0 -5 -2 -10 -4 -10 -3 0 -8 5 -11 10 -3 6 -1 10 4 10 6 0 11 -4 11 -10z m-53 -32 c-3 -8 -6 -5 -6 6 -1 11 2 17 5 13 3 -3 4 -12 1 -19z m103 -168 c0 -5 -7 -10 -16 -10 -8 0 -12 5 -9 10 3 6 10 10 16 10 5 0 9 -4 9 -10z m-1406 -39 c-2 -2 -10 -1 -19 3 -13 5 -14 8 -3 20 11 12 14 12 19 -3 4 -9 5 -18 3 -20z m510 33 c9 -3 16 -12 16 -20 0 -8 5 -14 10 -14 18 0 11 -18 -20 -48 -16 -17 -33 -26 -36 -20 -3 5 -12 7 -20 4 -8 -3 -14 1 -14 8 0 8 -7 16 -15 20 -21 8 -5 48 26 63 28 15 32 15 53 7z m833 -31 c-4 -3 -7 0 -7 7 0 7 3 10 7 7 3 -4 3 -10 0 -14z m3 -62 c0 -6 -4 -13 -10 -16 -5 -3 -10 1 -10 9 0 9 5 16 10 16 6 0 10 -4 10 -9z m-683 -158 c-4 -3 -10 -3 -14 0 -3 4 0 7 7 7 7 0 10 -3 7 -7z m-121 -24 c3 -6 1 -16 -5 -22 -9 -9 -14 -8 -21 3 -9 15 -4 30 10 30 5 0 12 -5 16 -11z m-160 -7 c-3 -5 2 -21 10 -36 8 -16 16 -40 18 -55 5 -26 5 -26 -23 7 -15 18 -28 38 -28 45 0 6 -4 20 -8 30 -5 13 -2 17 15 17 11 0 19 -4 16 -8z m311 -89 c-4 -3 -10 -3 -14 0 -3 4 0 7 7 7 7 0 10 -3 7 -7z m-267 -43 c0 -5 -5 -10 -11 -10 -5 0 -7 5 -4 10 3 6 8 10 11 10 2 0 4 -4 4 -10z m-340 -27 c0 -5 -4 -15 -10 -23 -11 -18 -25 -7 -17 15 6 15 27 21 27 8z m655 -83 c19 -21 7 -28 -13 -8 -9 9 -12 7 -12 -12 0 -17 -3 -21 -11 -13 -11 11 -3 53 10 53 4 0 16 -9 26 -20z m-242 -34 c17 -13 16 -14 -14 -13 -18 1 -34 8 -37 15 -5 16 28 15 51 -2z m124 -13 c-4 -3 -7 0 -7 7 0 7 3 10 7 7 3 -4 3 -10 0 -14z m-127 -23 c0 -5 -2 -10 -4 -10 -3 0 -8 5 -11 10 -3 6 -1 10 4 10 6 0 11 -4 11 -10z m77 -107 c-4 -3 -7 0 -7 7 0 7 3 10 7 7 3 -4 3 -10 0 -14z m128 -23 c-3 -5 -1 -10 6 -10 7 0 10 -2 8 -5 -3 -2 -15 -2 -27 2 -23 6 -21 23 4 23 8 0 12 -4 9 -10z m52 -17 c-4 -3 -10 -3 -14 0 -3 4 0 7 7 7 7 0 10 -3 7 -7z m-332 -257 l67 -204 37 -5 c54 -7 173 75 295 205 53 55 96 94 96 86 0 -9 -11 -40 -25 -70 -14 -29 -25 -68 -25 -85 0 -88 -24 -178 -63 -236 -36 -54 -40 -57 -56 -43 -14 13 -24 14 -55 5 -21 -6 -65 -9 -98 -7 -59 3 -59 3 -54 -22 26 -127 39 -244 28 -248 -7 -2 -10 -8 -6 -13 3 -5 1 -9 -5 -9 -6 0 -13 17 -17 38 -28 162 -58 293 -89 386 -20 60 -33 116 -30 125 3 8 3 12 -1 8 -11 -11 -35 74 -28 97 4 13 2 16 -6 11 -9 -5 -10 -1 -5 15 5 17 4 21 -6 15 -9 -6 -11 -3 -6 9 8 20 -2 68 -12 62 -3 -2 -6 6 -7 17 0 12 -4 35 -9 51 -5 20 -5 27 3 22 6 -3 41 -98 77 -210z m-491 -102 c-150 -103 -367 -197 -691 -299 -133 -42 -177 -69 -262 -162 -41 -44 -71 -70 -71 -60 0 25 114 151 167 185 27 17 137 60 246 97 310 103 445 162 592 259 38 25 80 46 93 46 17 0 -2 -17 -74 -66z m1125 -94 c1 -13 0 -13 -9 0 -5 8 -9 26 -9 40 l1 25 8 -25 c4 -14 8 -32 9 -40z m186 -80 c3 -5 4 -10 1 -10 -3 0 -8 5 -11 10 -3 6 -4 10 -1 10 3 0 8 -4 11 -10z m-561 -237 c-32 -47 -40 -55 -24 -23 12 24 40 60 46 60 2 0 -8 -17 -22 -37z m939 30 c-7 -2 -19 -2 -25 0 -7 3 -2 5 12 5 14 0 19 -2 13 -5z m1 -55 c-3 -4 7 -19 20 -33 14 -15 30 -43 37 -63 6 -21 15 -41 20 -46 5 -6 9 -14 9 -19 0 -16 -29 14 -36 36 -4 12 -24 52 -45 89 -43 73 -49 92 -20 62 10 -10 17 -22 15 -26z m46 22 c0 -11 -2 -20 -4 -20 -2 0 -6 9 -9 20 -3 11 -1 20 4 20 5 0 9 -9 9 -20z m-49 -88 c34 -77 37 -85 45 -127 10 -52 30 -103 45 -115 16 -13 49 -87 49 -112 0 -14 6 -33 13 -40 20 -20 27 -57 15 -87 l-10 -26 -11 25 c-5 14 -9 32 -8 40 2 8 0 12 -5 8 -4 -4 -13 0 -20 10 -15 20 -18 36 -5 28 5 -3 11 1 15 9 6 15 -21 35 -48 35 -9 0 -15 3 -15 8 3 19 -2 26 -11 12 -7 -12 -13 -9 -31 14 -17 22 -23 42 -23 80 0 30 -5 55 -13 61 -10 7 -11 19 -4 42 7 25 6 33 -6 37 -10 4 -14 15 -10 32 3 16 -1 28 -9 31 -17 6 -18 33 -1 33 6 0 4 5 -5 11 -10 5 -18 15 -18 22 0 7 4 6 10 -3 7 -11 10 -11 10 -2 0 8 5 10 12 6 8 -5 9 -2 5 10 -15 38 15 2 34 -42z m-947 -29 c-4 -32 -10 -65 -15 -73 -5 -9 -6 1 -4 25 4 32 3 35 -4 15 -5 -14 -9 -18 -10 -10 -1 14 31 100 37 100 1 0 -1 -26 -4 -57z m656 47 c0 -5 -2 -10 -4 -10 -3 0 -8 5 -11 10 -3 6 -1 10 4 10 6 0 11 -4 11 -10z m530 -24 c0 -3 -5 -8 -12 -12 -7 -4 -8 -3 -4 4 7 12 16 16 16 8z m-1232 -23 c-4 -22 -22 -20 -26 1 -2 10 3 16 13 16 10 0 15 -7 13 -17z m69 -35 c-3 -7 -5 -2 -5 12 0 14 2 19 5 13 2 -7 2 -19 0 -25z m873 -4 c0 -3 -7 -1 -15 6 -8 7 -15 17 -15 22 0 5 7 3 15 -6 8 -8 15 -18 15 -22z m280 32 c0 -3 -5 -8 -12 -12 -7 -4 -8 -3 -4 4 7 12 16 16 16 8z m-1212 -141 c-1 -73 -2 -81 -7 -40 -5 42 -10 50 -29 53 -21 3 -22 0 -18 -35 2 -21 5 -50 5 -65 1 -21 7 -28 29 -31 16 -3 11 -4 -13 -3 l-40 1 -1 85 c0 47 1 94 4 105 5 19 5 19 13 -3 14 -37 39 -28 39 16 0 27 3 33 10 22 5 -8 9 -55 8 -105z m115 95 c3 -11 1 -23 -4 -26 -5 -3 -9 6 -9 20 0 31 6 34 13 6z m1074 -132 c-8 -152 -24 -239 -24 -138 0 30 -3 72 -6 93 -4 28 -2 40 8 44 10 3 14 22 14 63 -1 49 5 80 14 80 1 0 -1 -64 -6 -142z m350 70 c-2 -13 -4 -5 -4 17 -1 22 1 32 4 23 2 -10 2 -28 0 -40z m-210 -85 c-4 -3 -7 0 -7 7 0 7 3 10 7 7 3 -4 3 -10 0 -14z m11 -103 c-1 -16 -5 -27 -9 -24 -9 5 -18 52 -11 58 11 12 22 -7 20 -34z m-1231 -22 c-3 -8 -6 -5 -6 6 -1 11 2 17 5 13 3 -3 4 -12 1 -19z m0 -35 c-4 -3 -7 0 -7 7 0 7 3 10 7 7 3 -4 3 -10 0 -14z m910 -30 c-4 -3 -7 0 -7 7 0 7 3 10 7 7 3 -4 3 -10 0 -14z m33 -17 c0 -3 -5 -8 -12 -12 -7 -4 -8 -3 -4 4 7 12 16 16 16 8z m50 -26 c0 -5 -2 -10 -4 -10 -3 0 -8 5 -11 10 -3 6 -1 10 4 10 6 0 11 -4 11 -10z m-24 -47 c-10 -10 -19 5 -10 18 6 11 8 11 12 0 2 -7 1 -15 -2 -18z m31 20 c-4 -3 -10 -3 -14 0 -3 4 0 7 7 7 7 0 10 -3 7 -7z m10 -30 c-4 -3 -7 0 -7 7 0 7 3 10 7 7 3 -4 3 -10 0 -14z m-780 -20 c-4 -3 -7 0 -7 7 0 7 3 10 7 7 3 -4 3 -10 0 -14z m733 7 c3 -1 7 -2 10 -2 3 0 6 -16 7 -36 1 -25 -5 -44 -23 -65 -14 -16 -28 -43 -31 -58 -3 -16 -9 -29 -14 -29 -12 0 -11 17 3 43 6 12 13 36 14 52 1 17 3 31 4 33 6 6 5 29 -1 49 -7 20 2 24 31 13z m557 -17 c-4 -3 -7 0 -7 7 0 7 3 10 7 7 3 -4 3 -10 0 -14z m-1290 -20 c-4 -3 -7 0 -7 7 0 7 3 10 7 7 3 -4 3 -10 0 -14z m795 -185 c9 -32 13 -36 26 -25 13 9 14 9 8 0 -4 -7 -15 -17 -24 -22 -13 -7 -18 -5 -19 7 -1 9 -4 40 -7 67 -3 28 -3 41 0 30 2 -11 10 -37 16 -57z m-1175 -35 c-4 -3 -7 0 -7 7 0 7 3 10 7 7 3 -4 3 -10 0 -14z m1153 -26 c0 -5 -4 -5 -10 -2 -5 3 -10 14 -10 23 0 15 2 15 10 2 5 -8 10 -19 10 -23z"/> <path d="M2260 1230 l-45 -6 55 -5 c62 -6 65 -5 48 7 -7 5 -33 7 -58 4z"/> <path d="M3350 593 c0 -11 11 -32 25 -47 14 -15 25 -21 25 -14 0 16 -15 39 -26 41 -5 1 -9 8 -11 15 -3 23 -13 27 -13 5z"/> <path d="M2700 4210 c0 -6 7 -10 15 -10 8 0 15 2 15 4 0 2 -7 6 -15 10 -8 3 -15 1 -15 -4z"/> <path d="M2495 4160 c3 -5 8 -10 11 -10 2 0 4 5 4 10 0 6 -5 10 -11 10 -5 0 -7 -4 -4 -10z"/> <path d="M1663 3953 c4 -3 10 -3 14 0 3 4 0 7 -7 7 -7 0 -10 -3 -7 -7z"/> <path d="M2977 3933 c-10 -10 -8 -33 2 -33 6 0 9 9 8 20 -1 23 -1 22 -10 13z"/> <path d="M3005 3910 c-4 -6 1 -7 11 -3 11 4 15 2 11 -4 -4 -6 0 -13 8 -17 18 -7 20 5 3 22 -15 15 -25 15 -33 2z"/> <path d="M2970 3870 c0 -7 3 -10 7 -7 3 4 3 10 0 14 -4 3 -7 0 -7 -7z"/> <path d="M3350 3250 c0 -7 3 -10 7 -7 3 4 3 10 0 14 -4 3 -7 0 -7 -7z"/> <path d="M3365 3110 c3 -5 8 -10 11 -10 3 0 2 5 -1 10 -3 6 -8 10 -11 10 -3 0 -2 -4 1 -10z"/> <path d="M3361 2853 c0 -5 4 -17 9 -28 8 -18 9 -17 9 8 1 15 -3 27 -9 27 -5 0 -10 -3 -9 -7z"/> <path d="M2964 2255 c-7 -19 -14 -38 -14 -43 0 -5 -7 -23 -16 -41 -9 -18 -14 -35 -10 -38 3 -3 13 13 22 36 9 22 20 38 25 35 5 -3 6 2 3 10 -4 10 3 17 24 23 25 7 28 11 21 31 -12 33 -38 27 -55 -13z"/> <path d="M2829 1656 c-27 -62 -19 -69 10 -10 13 25 20 48 17 51 -3 3 -15 -15 -27 -41z"/> <path d="M2890 1604 c0 -9 -16 -49 -35 -88 -24 -49 -47 -80 -75 -100 -22 -16 -38 -32 -35 -34 3 -3 27 13 54 36 27 23 52 37 54 32 3 -6 4 -5 3 2 -2 7 10 40 26 73 29 62 35 95 18 95 -5 0 -10 -7 -10 -16z"/> <path d="M2995 1580 c3 -5 10 -10 16 -10 5 0 9 5 9 10 0 6 -7 10 -16 10 -8 0 -12 -4 -9 -10z"/> <path d="M1040 1547 c-30 -12 -66 -30 -80 -40 -14 -10 -42 -20 -63 -24 -20 -3 -40 -10 -43 -14 -7 -12 9 -11 40 1 18 6 26 6 26 -1 0 -17 62 0 88 25 13 11 24 19 25 18 4 -9 54 21 65 39 15 23 11 23 -58 -4z"/> <path d="M1323 1533 c4 -3 10 -3 14 0 3 4 0 7 -7 7 -7 0 -10 -3 -7 -7z"/> <path d="M843 1423 c4 -3 10 -3 14 0 3 4 0 7 -7 7 -7 0 -10 -3 -7 -7z"/> <path d="M813 1413 c4 -3 10 -3 14 0 3 4 0 7 -7 7 -7 0 -10 -3 -7 -7z"/> <path d="M821 1386 c-37 -21 -10 -24 29 -4 25 13 29 18 15 18 -11 -1 -31 -7 -44 -14z"/> <path d="M708 1341 c-25 -11 -35 -20 -30 -28 6 -10 16 -10 45 -1 38 12 42 16 29 34 -5 8 -18 6 -44 -5z"/> <path d="M570 1280 c-19 -11 -30 -19 -25 -19 6 0 26 8 45 19 19 11 31 19 25 19 -5 0 -26 -8 -45 -19z"/> <path d="M3617 908 c3 -18 12 -46 19 -63 l13 -30 1 28 c0 28 -24 97 -34 97 -3 0 -3 -15 1 -32z"/> <path d="M2232 210 c0 -19 2 -27 5 -17 2 9 2 25 0 35 -3 9 -5 1 -5 -18z"/> <path d="M2868 183 c7 -3 16 -2 19 1 4 3 -2 6 -13 5 -11 0 -14 -3 -6 -6z"/> <path d="M2950 165 c0 -9 4 -14 9 -11 8 5 21 -15 21 -33 0 -4 -17 -6 -37 -4 -33 2 -34 1 -13 -6 14 -5 35 -9 48 -10 21 -1 23 3 20 37 -2 30 -7 38 -25 40 -16 2 -23 -2 -23 -13z"/> <path d="M2863 162 c-9 -6 -10 -24 -3 -72 5 -36 10 -72 10 -80 1 -8 6 -4 11 9 6 15 6 28 -1 36 -6 8 -6 15 3 24 9 9 9 14 -3 21 -13 8 -13 13 2 40 17 30 9 40 -19 22z"/> <path d="M3020 115 c0 -9 9 -15 24 -15 13 0 44 -3 70 -6 42 -6 46 -5 46 15 0 19 -5 21 -70 21 -56 0 -70 -3 -70 -15z m57 -2 c-4 -3 -10 -3 -14 0 -3 4 0 7 7 7 7 0 10 -3 7 -7z"/> <path d="M2918 63 c7 -3 16 -2 19 1 4 3 -2 6 -13 5 -11 0 -14 -3 -6 -6z"/> <path d="M2960 34 c0 -28 15 -25 23 6 3 13 0 20 -9 20 -8 0 -14 -10 -14 -26z"/> <path d="M3030 28 c0 -12 1 -19 3 -17 1 2 9 12 16 22 12 14 11 17 -3 17 -10 0 -16 -8 -16 -22z"/> <path d="M2221 14 c0 -11 3 -14 6 -6 3 7 2 16 -1 19 -3 4 -6 -2 -5 -13z"/> <path d="M2910 15 c-11 -13 -9 -15 15 -15 16 0 25 5 23 12 -7 19 -24 20 -38 3z"/> <path d="M3090 15 c0 -10 11 -15 35 -15 24 0 35 5 35 15 0 10 -11 15 -35 15 -24 0 -35 -5 -35 -15z"/> </g> </svg> 